<svg version="1.2" xmlns="http://www.w3.org/2000/svg" viewBox="0 0 1280 720" width="1600" height="900">
	<title>logojose</title>
	<style>
		.s0 { fill: #ffffff } 
	</style>
	<path id="WELLNESS" class="s0" aria-label="WELLNESS"  d="m329.1 158.5q4.8 0 9.8 2.2l-34.5 120.3q-3.2 0.5-6.2 0.5-2.8 0-6-0.5l-32.7-107.2-33 107.2q-3.2 0.5-5.9 0.5-2.3 0-6-0.5l-34.5-120.3q5-2.2 10-2.2l30.9 110.1 33-107.6q4.1-1.6 10.5-2.1l33.9 110.4zm53.1 122.6q-0.4-78.6-1.1-119.6 5.5-1.4 17.2-1.4h56.5q0.5 1.2 0.5 4.4 0 3-0.5 4.1h-63.2v46.3h53.4q0.4 1.1 0.4 4.3 0 3-0.4 4.1h-53.4v49.3h64.1q0.5 2.3 0.5 4.1 0 1.6-0.5 4.4zm118.8 0q-0.4-78.4-1.1-120.3 6.2-2.1 10.5-2.1v113.9h56.6q0.4 1.1 0.4 4.1 0 3-0.4 4.4zm108.7 0q-0.5-78.4-1.1-120.3 6.1-2.1 10.5-2.1v113.9h56.5q0.5 1.1 0.5 4.1 0 3-0.5 4.4zm192.3-120.3q5.1-1.6 10.3-2.1v122.1q-2.7 0.7-9.1 0.7l-75.6-106.9v106.2q-3.2 0.9-9.1 0.5-0.5-78.3-1.2-120.5 6-2.1 11.2-2.3l74.7 105.4q0-10.3-0.3-16.3 0-22.7-0.9-86.8zm64.6 120.3q-0.5-78.6-1.2-119.6 5.5-1.4 17.2-1.4h56.6q0.4 1.2 0.4 4.4 0 3-0.4 4.1h-63.2v46.3h53.3q0.5 1.1 0.5 4.3 0 3-0.5 4.1h-53.3v49.3h64.1q0.4 2.3 0.4 4.1 0 1.6-0.4 4.4zm148.3 2.9q-10.7 0-20.6-2.3-9.6-2.2-16-6.4 0.7-5.5 3.9-8.9 13.9 8.5 34.8 8.5 16 0 25.4-5.3 6.4-6.6 6.4-17.4 0-8.7-5.9-14.7-6-5.9-18.8-11.2l-15.8-6.4q-13.3-5.5-19.9-13.1-6.4-7.5-6.4-18.5 0-14.4 10.3-22.9 10.5-8.5 28.6-8.5 8.2 0 16.9 2.1 8.7 2 15.4 5.9-0.7 5.5-4.4 8.7-12.8-7.5-29.5-7.5-11.5 0-20.2 3.2-7.5 6.2-7.5 16.5 0 8.2 5 14.4 5.3 6.2 16.3 10.5l16.2 6.7q15.1 5.9 22.2 13.7 7.1 7.6 7.1 18.8 0 16.5-11.4 25.4-11.5 8.7-32.1 8.7zm121.4 0q-10.8 0-20.7-2.3-9.6-2.2-16-6.4 0.7-5.5 3.9-8.9 14 8.5 34.8 8.5 16 0 25.4-5.3 6.4-6.6 6.4-17.4 0-8.7-5.9-14.7-6-5.9-18.8-11.2l-15.8-6.4q-13.3-5.5-19.9-13.1-6.4-7.5-6.4-18.5 0-14.4 10.3-22.9 10.5-8.5 28.6-8.5 8.2 0 16.9 2.1 8.7 2 15.4 5.9-0.7 5.5-4.4 8.7-12.8-7.5-29.5-7.5-11.4 0-20.1 3.2-7.6 6.2-7.6 16.5 0 8.2 5 14.4 5.3 6.2 16.3 10.5l16.2 6.7q15.2 5.9 22.3 13.7 7 7.6 7 18.8 0 16.5-11.4 25.4-11.4 8.7-32 8.7z"/>
	<path id="by Jose" class="s0" aria-label="by Jose"  d="m775.5 404.4c-0.5-0.2-1-0.3-1.4-0.3-2.9 0-2.9 2.7-5.5 7.6-4.1 7.4-8.3 14.1-16.4 14.1-2.9 0-5.9-1.5-7.7-3.6 0.3-0.3 0.5-0.8 0.6-1.1 6.3-11.2 11.5-25.7 11.7-36.7 0-10.2-3.4-18.2-13.6-18.2-6 0-11.2 3-15.7 7.7 2.7-7.5 4-11.6 6.8-19.7l3.5-10.5c0.9-2.1-0.8-4.6-3.2-4.6-1.4 0-2.7 0.8-3.2 2.3-1.3 3.6-2.6 7.8-3.6 10.9-0.5 1.6-18.2 52.7-19.2 55.6-2 5.4-5 13.5-5 20.8 0 9.4 4 14.3 12.7 14.3 10.1 0 17.8-5.8 24.5-14.9 3 3.1 7.1 4.5 11.4 4.5 10.4 0 17-7.3 22.3-17.8 1-1.8 3.1-6 3.1-7.3 0-1.3-0.8-2.6-2.1-3.1zm-35.7-0.3c-1.5 0-2.8 0.9-3.2 2.5-1 3-1.2 5.4-1.2 7.8 0 3 0.5 5.4 1.3 7.5-5.6 8.6-12.6 14.3-20.2 14.3-4.4 0-6.1-2.6-6.1-7.8 0-3.3 1.1-7.6 3.5-14.5 6.5-16.3 16.5-40.8 29.6-40.8 5.5 0 6.3 4.5 6.3 11 0 7.9-3.1 18.7-7.3 27.1 0.2-0.8 0.4-1.8 0.7-2.8 0.5-2.2-1.2-4.3-3.4-4.3zm110.4 0.4c-0.5-0.1-1-0.3-1.4-0.3-1.3 0-2.5 0.8-3.1 2.1-8.1 19.2-19.4 34.1-38 40.4l2.4-7.1 12.9-37c5.2-14.1 9.6-25.3 12.2-32 0.8-2.4-1.5-4.7-3.4-4.7-1.3 0-2.6 1-3.1 2.3-10.8 28.7-9.9 25.8-12 32.1-6.4 18.7-16.8 35.9-25.3 35.9-9.3 0-10.7-5.9-10.7-10.6 0-5.8 2.7-10.8 9.9-30.5l8.8-24.6c0.9-2.2-0.4-4.6-3.2-4.6-1.3 0-2.6 0.8-3.1 2.1l-9 24.7c-6.3 16.5-10 25.5-10.4 32.9 0 8.1 3.9 17.4 17.7 17.4 4.5 0 8.5-1.9 12.2-5.5l-4 11.7c-4.4 1.1-8.7 1.9-12.8 2.6-19.4 3.5-27.3 11-27.3 21.2 0 9.6 6.3 15.9 16 15.8 11.7-0.2 21.7-11.7 29.4-34 23.6-6.9 37.1-22 47.1-45.7 0.2-0.5 0.3-1 0.3-1.5 0-1.3-0.8-2.4-2.1-3.1zm-74.7 77.4c-5.5 0.2-9.2-3.4-9.2-9 0.6-7.5 7-11.7 21.8-14.3 2.9-0.5 5.8-1.2 8.9-1.8-5.3 16.4-12.8 25-21.5 25.1zm210.4-145.5c-4.4 0.8-9.3 1.6-14.1 2.4-23.6 3.7-53.7 8.6-53.7 33-0.3 12 7.8 21.7 19.4 21.7 1.8 0 3.4-1.5 3.4-3.2 0-2-1.3-3.6-3.2-3.6-8.8-1-13.1-6.5-12.8-14.6 0-19.2 27.5-23.4 48-26.6 3.4-0.5 7-1 10.4-1.7 0 2.5-20.6 64.5-34.9 105.4-4.4 1.1-8.6 1.9-12.7 2.6-15.5 2.9-28.1 5.2-28.1 21.2 0.3 10.1 7.6 15.9 19.2 15.9 14-0.3 19.1-12 24.9-28.2l2-5.9c23.6-6.4 37-22.3 47.2-45.7 0.8-2.5-1-4.9-3.2-4.9-1.3 0-2.6 0.8-3.1 2.1-7.9 18.7-20.9 35.4-38.2 40.4 8.1-22.7 28.2-83.4 34.3-104 11.5-3.1 23.1-9.2 23.1-16.9 0-5.2-3.8-8.7-9.5-8.7-8.3 0-14.9 9.9-18.4 19.3zm8-1.8c2.6-5.5 6.8-11 10.4-11 1.3 0 2.3 0.9 2.3 2.2 0 2.6-5.9 7.3-12.7 8.8zm-48.6 123.8c-4.7 13.2-8.4 23.4-18.6 23.7-6.5 0-12.3-2.4-12.3-9.2 0-10.7 10-12 22.5-14.3 2.9-0.5 5.8-1.2 8.9-1.8zm126.9-49.7c1-2.2-0.8-4.7-3.3-4.7-1.2 0-2.5 0.8-3 2.1-5.7 13.5-11.3 19.7-18.1 19.7-3.7 0-6.5-1.2-8.3-3.4 7.5-12.7 12.6-28.6 12.6-38.8 0-9.8-5.5-17.1-16.1-17.4-8.1 0-16 5.7-22.8 17.1-5.4 8.7-13.8 24.5-13.8 43.3 0 9.4 3.6 16.4 14.1 16.4 7.8 0 16-6.7 22-14.8 3.5 2.9 7.7 4.4 12.3 4.4 9.7 0 17.3-7.5 24.4-23.9zm-37.5-4.7c-1.6 0-3.1 1-3.4 2.6-1.2 4.1-1.5 11.2 0.3 15.4-5.3 7.7-12.1 14.2-18.1 14.2-5.2 0-7.1-4.1-7.1-9.9 0-16.8 8.5-32.5 12.8-39.5 4.6-8.1 10.5-13.8 16.6-13.8 5.5 0 9.5 3.6 9.5 10.4 0 7.5-3 18.7-8 28.7 0.1-1.1 0.1-2.4 0.6-3.7 0.7-2.3-1-4.4-3.2-4.4zm89.9 10.3c-0.2-11.1-4.6-16.8-13-32.3 5-5.7 9.1-12.9 9.1-19.4-0.3-4.7-3.1-8.4-7.8-8.4-6.6 0-11.8 7.1-11.8 15.6 0 3.7 1 7.3 2.4 10.7-1.9 1.9-3.5 3.7-5.4 6-0.5 0.6-0.9 1.5-0.9 2.1 0 1 0.4 2.1 1.2 2.8 0.6 0.6 1.6 0.8 2.4 0.8 1 0 1.9-0.5 2.6-1.3 1-1.3 2.1-2.6 3.2-3.8 8.6 15.1 11 19.8 11.2 27-0.3 13.5-9.7 22.1-22.8 22.1-9.4 0-17.6-7-17.6-16.9 0.6-9.9 6.4-17.4 15.3-17.4 4.2 0 8.3 4.1 8.6 9.6 0 1.9 1.4 3.4 3.4 3.4 1.9 0 3.4-1.5 3.4-3.4-0.3-8.9-7.1-16.4-15.5-16.4-13 0-21.1 9.6-22 24.2 0 13.1 11 23.7 24.4 23.7 16.3 0 29.2-11.2 29.6-28.7zm-15.9-39.5c-0.5-1.8-0.8-3.4-0.8-5.2 0-2.3 0.5-5.2 2.4-7.1 1.7-1.6 3.4-2.1 3.4 0.1 0 3.6-2.4 8.6-5 12.2zm91.4 29.6c-1.8-0.7-3.7 0.1-4.6 1.7-9 21-19.4 30.4-32.6 30.1-9.7-0.4-14.9-6-14.6-15.3 0.2-3.4 0.7-6.5 1.8-10.7 18-4.4 42-14.8 42-32 0-7.8-5.6-12-13.7-12-19.1 0-35.9 33.8-36.9 54.5-0.3 13.4 7.8 22.3 21.2 22.3 16.4 0 28.6-10.7 39.2-34.1 0.1-0.5 0.3-0.8 0.3-1.3 0-1.3-0.8-2.6-2.1-3.2zm-47.4-2c5.2-12.5 14.6-29.4 25.7-29.4 3.6 0 7 0.8 7 5.2 0 12-19.3 20-32.7 24.2z"/>
</svg>